<svg width="156" height="40" viewBox="0 0 156 40" xmlns="http://www.w3.org/2000/svg"><title>logo</title><g fill-rule="nonzero" fill="none"><path fill="#8ED1BF" d="M16.282 0L0 10.014v20L16.308 40 32.59 29.986l-.026-20L16.282 0"/><path fill="#FFF" d="M2.816 12.587l13.047-7.944V2.965l-13.047 8"/><path fill="#FFF" d="M2.816 11.133l13.047 7.916-.08 17.342-12.967-8v-1.847l11.495 7.077.053-13.202L2.79 13.315M15.863 17.483V3.72l-1 .588-.053 12.503M28.067 27.385l-9.653 6.125.21-29.118-1.446-.868-.237 19.133-.025 13.735 12.73-7.944.027-2.126"/><path fill="#FFF" d="M16.967 19.524l12.705-7.776-1.263-.81-11.416 6.852"/><path fill="#FFF" d="M29.672 27.357v-15.61l-1.42.896-.053 14.714"/><g fill="#4E4E4E"><path d="M44.48 16.27c0 .446.078.81.262 1.116.184.278.42.53.736.725.315.196.657.335 1.05.475.395.14.816.223 1.263.334.58.14 1.157.306 1.735.473.552.168 1.078.42 1.498.725.447.307.79.697 1.078 1.2.264.5.422 1.115.422 1.895s-.158 1.478-.447 2.036c-.29.585-.71 1.03-1.236 1.42-.526.364-1.13.642-1.84.81-.71.167-1.5.28-2.34.28-.394 0-.788-.03-1.21-.085-.42-.056-.787-.112-1.18-.195-.37-.084-.71-.168-1-.28-.29-.11-.526-.222-.71-.306v-1.7c.263.14.578.25.92.362.342.11.683.223 1.05.28.37.082.737.138 1.105.194.368.056.71.056 1.025.056.526 0 1.025-.056 1.498-.14.474-.084.894-.25 1.262-.446.368-.223.657-.502.867-.864.21-.363.316-.837.316-1.395 0-.445-.08-.835-.263-1.114-.184-.307-.42-.53-.736-.725-.315-.194-.657-.362-1.05-.473-.396-.112-.816-.223-1.263-.335-.577-.14-1.155-.28-1.707-.474-.552-.167-1.052-.418-1.498-.697-.447-.306-.79-.696-1.052-1.17-.263-.474-.394-1.087-.394-1.84 0-.78.13-1.45.42-2.008s.657-1.032 1.13-1.394c.473-.363 1.025-.642 1.656-.81.63-.166 1.287-.25 1.997-.25.815 0 1.55.084 2.234.223.684.168 1.34.364 1.92.615v1.728c-.632-.278-1.263-.474-1.92-.64-.657-.168-1.367-.252-2.13-.252-.577 0-1.076.057-1.497.196-.42.112-.762.307-1.05.53-.29.223-.474.502-.632.837-.21.306-.29.67-.29 1.087zM64.98 21.93c0 .754-.08 1.423-.21 2.008-.132.586-.342 1.088-.58 1.506-.235.42-.524.78-.84 1.088-.315.28-.657.53-1 .697-.34.166-.708.306-1.05.39-.368.083-.683.11-1 .11-.656 0-1.234-.11-1.707-.334-.473-.223-.92-.53-1.288-.948h-.08v6.302H55.52V16.66h1.314l.368 1.228h.026c.105-.14.21-.307.368-.447.158-.138.368-.305.63-.473.264-.167.58-.306.947-.418.37-.112.763-.196 1.184-.196.604 0 1.183.11 1.735.307.55.196 1.05.53 1.47.977.42.446.763 1.03 1.026 1.728.262.725.394 1.562.394 2.566zm-1.814.03c0-.643-.08-1.2-.21-1.702s-.342-.92-.605-1.283c-.26-.362-.577-.613-.97-.81-.395-.194-.842-.277-1.34-.277-.37 0-.685.055-1 .14-.29.11-.578.222-.815.36-.237.14-.447.308-.63.503-.185.17-.316.336-.42.475v5.66c.367.39.787.67 1.26.893.473.223.973.335 1.525.335.34 0 .683-.056 1.05-.195.37-.112.71-.363 1.026-.67.315-.334.578-.752.762-1.31.263-.558.368-1.255.368-2.12zM72.812 26.197c.578 0 1.104-.056 1.577-.14.472-.083.945-.222 1.418-.39v1.478c-.394.195-.867.335-1.42.446-.55.113-1.155.17-1.812.17-.763 0-1.472-.113-2.156-.308-.683-.195-1.26-.502-1.734-.948-.5-.446-.868-1.004-1.157-1.73-.29-.696-.42-1.56-.42-2.564 0-.976.13-1.84.393-2.566.263-.725.63-1.338 1.078-1.812.447-.474.973-.837 1.55-1.088.58-.25 1.184-.362 1.84-.362.606 0 1.158.11 1.683.306.526.196.973.53 1.34.95.395.445.684.974.894 1.672.21.67.342 1.505.342 2.453v.67h-7.387c0 .697.106 1.282.316 1.756.21.473.498.864.84 1.17.368.307.762.53 1.26.642.475.14 1 .195 1.552.195zm-.92-8.31c-.394 0-.788.084-1.13.25-.342.17-.657.364-.894.643-.262.28-.473.585-.63.948-.158.362-.263.753-.29 1.17h5.467c0-.417-.052-.808-.157-1.198-.105-.362-.263-.697-.473-.948-.21-.28-.473-.474-.79-.64-.314-.14-.682-.224-1.103-.224zM85.454 26.253h-.052c-.132.195-.316.362-.552.53-.21.167-.473.334-.762.474-.29.14-.605.25-.946.334-.342.085-.71.113-1.078.113-.526 0-1-.084-1.42-.223-.42-.168-.814-.39-1.103-.67-.315-.306-.55-.67-.735-1.087-.184-.446-.263-.92-.263-1.478 0-.53.105-1.032.29-1.45.183-.418.446-.78.814-1.087.342-.307.762-.53 1.235-.67.474-.167 1.026-.25 1.604-.25.552 0 1.078.055 1.55.14.474.083.895.194 1.263.334h.052v-.753c0-.308-.027-.56-.053-.782-.027-.223-.105-.418-.184-.614-.184-.362-.5-.67-.946-.892-.42-.25-1-.362-1.735-.362-.552 0-1.05.055-1.525.167-.473.11-.946.25-1.42.418v-1.478c.185-.083.395-.167.632-.25.235-.084.498-.14.76-.196.264-.055.553-.11.87-.138.288-.028.603-.056.892-.056 1.078 0 1.97.195 2.655.586.683.39 1.182.892 1.472 1.533.104.25.183.502.235.81.053.278.08.612.08.947v7.25H85.61l-.158-1.2zm-.078-3.54c-.316-.085-.71-.17-1.13-.252-.447-.083-.92-.14-1.446-.14-.736 0-1.314.168-1.735.475-.42.307-.63.81-.63 1.478 0 .335.052.614.157.865.105.25.237.446.42.613.185.168.395.28.658.363.262.084.525.112.788.112.368 0 .71-.056 1.05-.167.317-.112.606-.25.87-.39.262-.14.472-.307.63-.447.184-.138.315-.278.394-.36V22.71h-.026zM97.413 16.66h2.26l-5.23 4.964 5.204 5.828h-2.18l-5.126-5.744h-.026v5.744h-1.708V11h1.735v10.485h.027M106.35 26.197c.578 0 1.104-.056 1.577-.14.473-.083.946-.222 1.42-.39v1.478c-.395.195-.868.335-1.42.446-.552.113-1.157.17-1.814.17-.762 0-1.472-.113-2.155-.308-.683-.195-1.262-.502-1.735-.948-.5-.446-.867-1.004-1.156-1.73-.29-.696-.42-1.56-.42-2.564 0-.976.13-1.84.393-2.566.263-.725.63-1.338 1.078-1.812.447-.474.973-.837 1.55-1.088.58-.25 1.184-.362 1.84-.362.605 0 1.157.11 1.683.306s.973.53 1.34.95c.395.445.685.974.895 1.672.21.67.34 1.505.34 2.453v.67h-7.384c0 .697.106 1.282.316 1.756.21.473.5.864.84 1.17.37.307.764.53 1.263.642.472.14.97.195 1.55.195zm-.947-8.31c-.394 0-.788.084-1.13.25-.34.17-.657.364-.893.643-.263.28-.473.585-.63.948-.16.362-.264.753-.29 1.17h5.467c0-.417-.053-.808-.158-1.198-.106-.362-.264-.697-.474-.948-.21-.25-.473-.474-.79-.64-.314-.14-.682-.224-1.103-.224zM118.598 18.083h-.132c-.42 0-.815.028-1.21.11-.393.085-.76.196-1.13.336-.34.166-.656.333-.945.584-.288.25-.525.502-.71.81v7.528h-1.734v-10.82h1.34l.343 1.73h.025c.184-.28.394-.53.63-.78.264-.252.526-.447.842-.643.315-.196.657-.335 1.025-.42.368-.083.762-.166 1.183-.166h.236c.08 0 .16 0 .21.028v1.7h.028zM127.98 19.588c.474.056.894.196 1.262.363.368.196.684.42.947.698.26.28.472.614.603 1.004.132.39.21.836.21 1.338 0 .363-.052.725-.157 1.116-.105.39-.29.78-.526 1.143-.237.362-.552.696-.946 1.03-.394.308-.868.558-1.446.754-.447.14-.946.25-1.472.306-.552.056-1.182.084-1.945.084h-3.862V12.2h3.706c.34 0 .657 0 .92.027.29 0 .525.028.762.056.236.028.447.055.657.083.21.028.394.084.578.112.474.14.895.307 1.263.53.394.223.71.502.972.808.263.307.473.67.605 1.06.13.39.21.837.21 1.283 0 .36-.053.724-.13 1.058-.08.335-.238.67-.422.948-.184.28-.447.558-.736.78-.315.224-.683.42-1.104.56v.082h.053zm-2.68-.752c.368 0 .683-.028.946-.056.263-.028.5-.084.71-.167.552-.196.972-.475 1.235-.893.264-.39.395-.864.395-1.422 0-.558-.13-1.032-.394-1.366-.262-.335-.682-.614-1.26-.81-.29-.083-.605-.138-1-.166-.367-.028-.814-.056-1.34-.056h-2.05v4.908h2.76v.028zm-2.786 1.673v5.297h2.208c.525 0 1.025-.028 1.472-.084.446-.056.84-.14 1.156-.223.342-.112.63-.25.867-.446.237-.167.42-.363.58-.586.156-.223.26-.446.314-.697.054-.25.106-.5.106-.752 0-.28-.026-.557-.105-.808-.078-.25-.183-.474-.34-.67-.158-.195-.37-.39-.605-.53-.263-.14-.552-.278-.946-.362-.238-.056-.475-.084-.764-.11-.29-.03-.657-.03-1.077-.03h-2.866zM143.646 22.07c0 .837-.132 1.618-.368 2.315-.237.697-.58 1.282-1.025 1.784-.447.5-.973.892-1.604 1.143-.63.278-1.315.418-2.103.418-.79 0-1.498-.14-2.13-.418-.63-.278-1.156-.67-1.603-1.143-.446-.503-.762-1.088-.998-1.785-.237-.697-.342-1.478-.342-2.315 0-.864.13-1.645.368-2.342.237-.697.578-1.31 1.025-1.785.447-.502.972-.892 1.603-1.17.63-.28 1.314-.42 2.103-.42.788 0 1.498.14 2.13.42.63.278 1.155.668 1.602 1.17.447.502.762 1.088 1 1.785.235.697.34 1.478.34 2.342zm-1.814 0c0-.67-.08-1.255-.236-1.784-.158-.53-.395-.948-.684-1.31-.29-.363-.63-.642-1.025-.81-.394-.195-.84-.278-1.314-.278-.473 0-.92.083-1.314.278-.395.196-.737.447-1.026.81-.29.362-.526.808-.684 1.31-.157.53-.236 1.115-.236 1.784 0 .67.08 1.255.236 1.757.158.53.395.948.684 1.31.29.363.63.642 1.025.81.393.194.84.278 1.313.278s.894-.084 1.288-.28c.395-.194.737-.445 1.026-.807.29-.363.526-.78.683-1.31.183-.503.262-1.09.262-1.758zM150.006 20.815l2.89-4.154h1.92l-3.916 5.354 4.047 5.466h-1.892l-3.128-4.322h-.052l-3.05 4.294h-1.89l4.046-5.493-3.915-5.3h1.92l2.942 4.155"/></g></g></svg>