<svg id="Layer_1" xmlns="http://www.w3.org/2000/svg" viewBox="0 0 612 792"><style>.st0{fill:#8ED1BF;} .st1{fill:#FFFFFF;}</style><path class="st0" d="M306.4 137.9l-162.3 93.9.2 187.5 162.5 93.6L469.1 419l-.2-187.5-162.5-93.6"/><path class="st1" d="M172.4 255.9l130.2-74.4v-15.7l-130.2 75.1z"/><path class="st1" d="M172.6 242.3l130 74.3-.7 162.5-129.5-74.8v-17.4L287 453.2l.7-123.8-115.4-66.5zM302.6 301.8V172.9l-10 5.4-.5 117.4zM424.2 394.7L328.1 452l2-272.8-14.5-8.3-2.4 179.4-.2 128.8 127.1-74.5.2-19.8z"/><path class="st1" d="M313.7 321l126.6-72.8-12.7-7.7-113.7 64.2zM440.2 394.6l.1-146.4-14.3 8.3-.4 137.9"/></svg>