<svg width="156" height="40" viewBox="0 0 156 40" xmlns="http://www.w3.org/2000/svg"><title>logo-inverse</title><g fill-rule="nonzero" fill="none"><path fill="#8ED1BF" d="M16.33 0L0 10.014v20L16.355 40l16.33-10.014-.027-20L16.328 0"/><path fill="#FFF" d="M2.824 12.587L15.91 4.643V2.965l-13.086 8"/><path fill="#FFF" d="M2.824 11.133L15.91 19.05l-.08 17.342-13.006-8v-1.847l11.528 7.077.053-13.202-11.607-7.105M15.91 17.483V3.72l-1.004.588-.053 12.503M28.15 27.385l-9.683 6.125.21-29.118-1.45-.868-.237 19.133-.026 13.735 12.767-7.944.028-2.126"/><path fill="#FFF" d="M17.016 19.524l12.742-7.776-1.267-.81-11.447 6.852"/><path fill="#FFF" d="M29.758 27.357v-15.61l-1.425.896-.053 14.714"/><g fill="#FFF"><path d="M44.608 16.27c0 .446.08.81.263 1.116.186.278.423.53.74.725.316.196.658.335 1.054.475.395.14.817.223 1.265.334.58.14 1.16.306 1.74.473.552.168 1.08.42 1.5.725.45.307.792.697 1.082 1.2.264.5.422 1.115.422 1.895s-.158 1.478-.448 2.036c-.29.585-.712 1.03-1.24 1.42-.527.364-1.133.642-1.844.81-.712.167-1.503.28-2.346.28-.396 0-.79-.03-1.213-.085-.422-.056-.79-.112-1.186-.195-.37-.084-.712-.168-1.002-.28-.29-.11-.527-.222-.712-.306v-1.7c.264.14.58.25.923.362.343.11.685.223 1.054.28.37.082.738.138 1.108.194.37.056.71.056 1.028.056.527 0 1.028-.056 1.502-.14.474-.084.896-.25 1.265-.446.37-.223.66-.502.87-.864.21-.363.316-.837.316-1.395 0-.445-.08-.835-.264-1.114-.185-.307-.422-.53-.738-.725-.317-.194-.66-.362-1.055-.473-.395-.112-.817-.223-1.265-.335-.58-.14-1.16-.28-1.713-.474-.554-.167-1.055-.418-1.503-.697-.448-.306-.79-.696-1.054-1.17s-.395-1.087-.395-1.84c0-.78.13-1.45.42-2.008s.66-1.032 1.135-1.394c.474-.363 1.028-.642 1.66-.81.633-.166 1.292-.25 2.004-.25.817 0 1.555.084 2.24.223.686.168 1.345.364 1.924.615v1.728c-.632-.278-1.265-.474-1.924-.64-.66-.168-1.37-.252-2.135-.252-.58 0-1.08.057-1.502.196-.422.112-.765.307-1.055.53-.29.223-.474.502-.632.837-.21.306-.29.67-.29 1.087zM65.168 21.93c0 .754-.08 1.423-.21 2.008-.133.586-.343 1.088-.58 1.506-.238.42-.528.78-.844 1.088-.317.28-.66.53-1.002.697-.343.166-.712.306-1.054.39-.37.083-.686.11-1.002.11-.66 0-1.24-.11-1.713-.334-.475-.223-.923-.53-1.292-.948h-.078v6.302H55.68V16.66h1.317l.37 1.228h.025c.105-.14.21-.307.37-.447.157-.138.368-.305.632-.473.263-.167.58-.306.95-.418.368-.112.763-.196 1.185-.196.605 0 1.185.11 1.74.307.552.196 1.053.53 1.475.977.42.446.764 1.03 1.028 1.728.263.725.395 1.562.395 2.566zm-1.82.03c0-.643-.078-1.2-.21-1.702-.13-.502-.342-.92-.606-1.283-.263-.362-.58-.613-.975-.81-.396-.194-.844-.277-1.345-.277-.37 0-.685.055-1 .14-.29.11-.58.222-.818.36-.238.14-.448.308-.633.503-.183.17-.315.336-.42.475v5.66c.368.39.79.67 1.265.893.474.223.975.335 1.528.335.343 0 .686-.056 1.055-.195.37-.112.71-.363 1.028-.67.316-.334.58-.752.764-1.31.264-.558.37-1.255.37-2.12zM73.023 26.197c.58 0 1.107-.056 1.582-.14.474-.083.95-.222 1.423-.39v1.478c-.395.195-.87.335-1.423.446-.554.113-1.16.17-1.82.17-.763 0-1.475-.113-2.16-.308-.686-.195-1.266-.502-1.74-.948-.5-.446-.87-1.004-1.16-1.73-.29-.696-.422-1.56-.422-2.564 0-.976.132-1.84.396-2.566.262-.725.63-1.338 1.08-1.812.447-.474.975-.837 1.555-1.088.58-.25 1.186-.362 1.845-.362.606 0 1.16.11 1.687.306.527.196.975.53 1.344.95.396.445.686.974.897 1.672.21.67.343 1.505.343 2.453v.67h-7.407c0 .697.105 1.282.316 1.756.21.473.5.864.843 1.17.37.307.764.53 1.265.642.474.14 1.002.195 1.555.195zm-.922-8.31c-.395 0-.79.084-1.133.25-.343.17-.66.364-.896.643-.263.28-.474.585-.632.948-.158.362-.263.753-.29 1.17h5.483c0-.417-.052-.808-.157-1.198-.106-.362-.264-.697-.475-.948-.21-.28-.474-.474-.79-.64-.317-.14-.686-.224-1.107-.224zM85.702 26.253h-.053c-.132.195-.317.362-.554.53-.21.167-.475.334-.765.474-.29.14-.605.25-.948.334-.342.085-.71.113-1.08.113-.528 0-1.002-.084-1.424-.223-.42-.168-.817-.39-1.107-.67-.315-.306-.552-.67-.737-1.087-.184-.446-.263-.92-.263-1.478 0-.53.105-1.032.29-1.45.184-.418.448-.78.817-1.087.342-.307.764-.53 1.24-.67.473-.167 1.027-.25 1.606-.25.554 0 1.08.055 1.556.14.473.083.895.194 1.264.334h.053v-.753c0-.308-.027-.56-.053-.782-.026-.223-.106-.418-.185-.614-.185-.362-.5-.67-.95-.892-.42-.25-1-.362-1.74-.362-.553 0-1.054.055-1.528.167-.475.11-.95.25-1.424.418v-1.478c.185-.083.396-.167.633-.25.238-.084.502-.14.766-.196.263-.055.553-.11.87-.138.29-.028.606-.056.896-.056 1.08 0 1.977.195 2.662.586.685.39 1.186.892 1.476 1.533.105.25.185.502.237.81.053.278.08.612.08.947v7.25H85.86l-.158-1.2zm-.08-3.54c-.315-.085-.71-.17-1.132-.252-.45-.083-.923-.14-1.45-.14-.738 0-1.318.168-1.74.475-.422.307-.633.81-.633 1.478 0 .335.053.614.16.865.104.25.236.446.42.613.185.168.396.28.66.363.263.084.526.112.79.112.37 0 .712-.056 1.054-.167.318-.112.608-.25.87-.39.265-.14.476-.307.634-.447.184-.138.316-.278.395-.36V22.71h-.027zM97.696 16.66h2.267l-5.246 4.964 5.22 5.828h-2.19l-5.14-5.744h-.025v5.744h-1.714V11h1.74v10.485h.027M106.658 26.197c.58 0 1.107-.056 1.58-.14.476-.083.95-.222 1.425-.39v1.478c-.396.195-.87.335-1.424.446-.554.113-1.16.17-1.82.17-.764 0-1.476-.113-2.16-.308-.686-.195-1.266-.502-1.74-.948-.5-.446-.87-1.004-1.16-1.73-.29-.696-.422-1.56-.422-2.564 0-.976.132-1.84.395-2.566.264-.725.633-1.338 1.08-1.812.45-.474.976-.837 1.556-1.088.58-.25 1.185-.362 1.844-.362.607 0 1.16.11 1.687.306.528.196.977.53 1.346.95.395.445.685.974.896 1.672.21.67.343 1.505.343 2.453v.67h-7.407c0 .697.105 1.282.316 1.756.21.473.5.864.843 1.17.37.307.765.53 1.266.642.474.14.975.195 1.555.195zm-.95-8.31c-.395 0-.79.084-1.133.25-.342.17-.66.364-.896.643-.264.28-.475.585-.633.948-.16.362-.264.753-.29 1.17h5.482c0-.417-.053-.808-.16-1.198-.104-.362-.262-.697-.473-.948-.21-.25-.475-.474-.79-.64-.317-.14-.686-.224-1.108-.224zM118.94 18.083h-.13c-.422 0-.818.028-1.213.11-.395.085-.764.196-1.133.336-.343.166-.66.333-.95.584-.29.25-.527.502-.71.81v7.528h-1.74v-10.82h1.343l.343 1.73h.027c.184-.28.395-.53.632-.78.263-.252.526-.447.843-.643.316-.196.66-.335 1.028-.42.37-.083.765-.166 1.187-.166h.237c.08 0 .158 0 .21.028v1.7h.027zM128.352 19.588c.474.056.896.196 1.265.363.37.196.685.42.95.698.262.28.473.614.605 1.004s.21.836.21 1.338c0 .363-.052.725-.157 1.116-.106.39-.29.78-.527 1.143-.238.362-.554.696-.95 1.03-.395.308-.87.558-1.45.754-.447.14-.948.25-1.475.306-.554.056-1.186.084-1.95.084h-3.876V12.2h3.717c.343 0 .66 0 .923.027.29 0 .527.028.764.056.238.028.45.055.66.083.21.028.395.084.58.112.474.14.896.307 1.265.53.396.223.712.502.975.808.264.307.475.67.607 1.06s.21.837.21 1.283c0 .36-.052.724-.13 1.058-.08.335-.238.67-.423.948-.184.28-.448.558-.738.78-.316.224-.685.42-1.107.56v.082h.052zm-2.69-.752c.37 0 .686-.028.95-.056.263-.028.5-.084.712-.167.553-.196.975-.475 1.238-.893.264-.39.396-.864.396-1.422 0-.558-.132-1.032-.396-1.366-.263-.335-.685-.614-1.265-.81-.29-.083-.606-.138-1-.166-.37-.028-.82-.056-1.346-.056h-2.055v4.908h2.768v.028zm-2.793 1.673v5.297h2.213c.527 0 1.028-.028 1.476-.084.447-.056.843-.14 1.16-.223.342-.112.632-.25.87-.446.236-.167.42-.363.58-.586.157-.223.262-.446.315-.697.053-.25.106-.5.106-.752 0-.28-.026-.557-.105-.808-.08-.25-.184-.474-.343-.67-.158-.195-.37-.39-.606-.53-.263-.14-.553-.278-.95-.362-.236-.056-.473-.084-.763-.11-.29-.03-.66-.03-1.08-.03h-2.874zM144.062 22.07c0 .837-.132 1.618-.37 2.315-.236.697-.58 1.282-1.027 1.784-.448.5-.976.892-1.608 1.143-.633.278-1.318.418-2.11.418-.79 0-1.5-.14-2.134-.418-.633-.278-1.16-.67-1.608-1.143-.448-.503-.764-1.088-1.002-1.785-.237-.697-.342-1.478-.342-2.315 0-.864.133-1.645.37-2.342.237-.697.58-1.31 1.028-1.785.448-.502.975-.892 1.608-1.17.632-.28 1.318-.42 2.108-.42s1.503.14 2.136.42c.632.278 1.16.668 1.607 1.17.45.502.765 1.088 1.002 1.785.236.697.342 1.478.342 2.342zm-1.82 0c0-.67-.078-1.255-.236-1.784-.158-.53-.396-.948-.686-1.31-.29-.363-.632-.642-1.028-.81-.395-.195-.843-.278-1.318-.278-.474 0-.922.083-1.318.278-.395.196-.738.447-1.028.81-.29.362-.527.808-.685 1.31-.158.53-.237 1.115-.237 1.784 0 .67.08 1.255.237 1.757.158.53.396.948.685 1.31.29.363.633.642 1.028.81.396.194.844.278 1.318.278.475 0 .897-.084 1.292-.28.395-.194.738-.445 1.028-.807.29-.363.527-.78.685-1.31.184-.503.263-1.09.263-1.758zM150.44 20.815l2.9-4.154h1.925l-3.928 5.354 4.06 5.466h-1.898l-3.138-4.322h-.053l-3.06 4.294h-1.897l4.06-5.493-3.928-5.3h1.924l2.952 4.155"/></g></g></svg>